<svg width="20" height="22" viewBox="0 0 20 22" fill="none" xmlns="http://www.w3.org/2000/svg">
<path d="M5.14134 2.00519C5.97388 1.35677 7.06259 0.998535 8.14429 0.998535C8.79171 0.998535 9.31505 1.22068 9.71231 1.57391C9.81938 1.66897 9.91444 1.77204 9.9995 1.87811C10.0846 1.77204 10.1796 1.66897 10.2867 1.57391C10.6839 1.22068 11.2073 0.998535 11.8547 0.998535C12.9364 0.998535 14.0261 1.35677 14.8567 2.00519C15.5051 2.50852 16.0124 3.20397 16.2115 4.04351C16.6318 4.11356 17.0051 4.3277 17.3072 4.61088C17.7876 5.06218 18.1308 5.7146 18.3459 6.38604C18.5651 7.06748 18.6741 7.83298 18.6411 8.56846C18.6241 8.9447 18.5691 9.32895 18.464 9.69619L18.529 9.72621C18.8993 9.90032 19.1995 10.1735 19.4246 10.5367C19.8499 11.2222 20 12.2088 20 13.4666C20 14.9126 19.4466 15.8942 18.7362 16.5036C18.3661 16.821 17.933 17.0563 17.4654 17.1941C17.2957 17.976 16.947 18.708 16.4467 19.3325C15.7232 20.237 14.5985 21.0015 13.0875 21.0015C11.8767 21.0015 10.9231 20.3311 10.3107 19.6907C10.2021 19.5762 10.0986 19.457 10.0005 19.3335C9.90206 19.4567 9.79822 19.5756 9.6893 19.6897C9.0769 20.3321 8.12328 21.0015 6.91249 21.0015C5.40051 21.0015 4.27578 20.237 3.55331 19.3325C3.05227 18.7082 2.70289 17.9762 2.53265 17.1941C2.06535 17.0562 1.63257 16.8209 1.26282 16.5036C0.552359 15.8932 0 14.9126 0 13.4666C0 12.2088 0.150098 11.2222 0.574373 10.5367C0.799475 10.1636 1.13524 9.86976 1.535 9.69619C1.43219 9.32847 1.37275 8.94999 1.35788 8.56846C1.32486 7.83298 1.43393 7.06748 1.65307 6.38604C1.86821 5.7156 2.21044 5.06218 2.69175 4.61088C2.99277 4.31747 3.37412 4.12001 3.78746 4.04351C3.98759 3.20297 4.49392 2.50852 5.14134 2.00519ZM6.06394 3.18896C5.51759 3.61424 5.19738 4.1806 5.19738 4.83303C5.19729 4.95188 5.16897 5.06901 5.11476 5.17478C5.06054 5.28055 4.98199 5.37193 4.88555 5.4414C4.78911 5.51087 4.67756 5.55644 4.56006 5.57436C4.44257 5.59229 4.3225 5.58205 4.20974 5.54449C4.07265 5.49846 3.92755 5.50947 3.71942 5.70559C3.48727 5.92274 3.25211 6.31599 3.082 6.84433C2.91184 7.37953 2.83599 7.94024 2.85786 8.50141C2.88287 9.05777 3.01496 9.52007 3.2231 9.83228C3.25753 9.884 3.28543 9.9398 3.30615 9.99838H4.38885C5.10929 9.99823 5.80308 10.2708 6.33082 10.7612C6.85855 11.2516 7.18112 11.9236 7.2337 12.6421C7.66476 12.8141 8.02265 13.1306 8.2461 13.5374C8.46954 13.9441 8.54467 14.4159 8.45861 14.872C8.37254 15.3281 8.13065 15.74 7.77432 16.0374C7.418 16.3348 6.96939 16.4991 6.50529 16.5022C6.04119 16.5052 5.59045 16.3469 5.23021 16.0543C4.86996 15.7617 4.62262 15.3529 4.53052 14.8981C4.43841 14.4432 4.50727 13.9704 4.7253 13.5607C4.94333 13.151 5.29698 12.8298 5.72572 12.6521C5.67819 12.3316 5.51703 12.0388 5.27162 11.8272C5.0262 11.6156 4.7129 11.4992 4.38885 11.4994H1.76215C1.61205 11.8476 1.50098 12.449 1.50098 13.4666C1.50098 14.4883 1.87222 15.0487 2.24046 15.3649C2.64372 15.7101 3.08701 15.8002 3.21509 15.8002C3.41413 15.8002 3.60502 15.8792 3.74576 16.02C3.88651 16.1607 3.96558 16.3516 3.96558 16.5506C3.96558 16.9709 4.19773 17.7344 4.72607 18.3948C5.2344 19.0323 5.95887 19.5006 6.91249 19.5006C7.54991 19.5006 8.13629 19.1423 8.60359 18.654C8.82974 18.4159 9.00585 18.1687 9.12193 17.9686C9.16585 17.8937 9.20431 17.8158 9.237 17.7354L9.24301 17.7214V8.24725H8.34643C8.17226 8.67779 7.85377 9.03436 7.44555 9.25584C7.03732 9.47732 6.56477 9.54992 6.10889 9.46121C5.653 9.37249 5.24216 9.12798 4.94678 8.76958C4.6514 8.41118 4.48987 7.9612 4.48987 7.49676C4.48987 7.03232 4.6514 6.58234 4.94678 6.22394C5.24216 5.86554 5.653 5.62102 6.10889 5.53231C6.56477 5.44359 7.03732 5.5162 7.44555 5.73768C7.85377 5.95916 8.17226 6.31573 8.34643 6.74627H9.24301V4.20662L9.24001 4.14958C9.22289 3.8414 9.16224 3.53719 9.05989 3.246C8.96983 3.00584 8.85275 2.81872 8.71466 2.69564C8.59158 2.58557 8.42147 2.49951 8.14429 2.49951C7.3778 2.49951 6.6183 2.75768 6.06294 3.18996L6.06394 3.18896ZM10.757 16.0023V17.7214L10.762 17.7354C10.782 17.7884 10.82 17.8675 10.8781 17.9686C10.9931 18.1687 11.1693 18.4159 11.3964 18.654C11.8627 19.1423 12.4501 19.5006 13.0875 19.5006C14.0401 19.5006 14.7646 19.0323 15.2739 18.3948C15.8013 17.7344 16.0344 16.9699 16.0344 16.5506C16.0344 16.3516 16.1135 16.1607 16.2542 16.02C16.395 15.8792 16.5859 15.8002 16.7849 15.8002C16.913 15.8002 17.3553 15.7101 17.7595 15.3649C18.1268 15.0487 18.498 14.4883 18.498 13.4666C18.498 12.2579 18.3399 11.6354 18.1488 11.3282C18.089 11.222 17.9982 11.1365 17.8886 11.0831C17.7876 11.0351 17.6355 10.999 17.4003 10.999C17.2645 10.999 17.1312 10.9622 17.0147 10.8923C16.8982 10.8225 16.8028 10.7224 16.7387 10.6027C16.6746 10.4829 16.6442 10.348 16.6508 10.2123C16.6573 10.0766 16.7006 9.9453 16.7759 9.83228C16.984 9.51907 17.1161 9.05777 17.1421 8.50141C17.1637 7.94018 17.0875 7.37948 16.917 6.84433C16.7469 6.31599 16.5117 5.92374 16.2806 5.70559C16.0714 5.50947 15.9264 5.49846 15.7903 5.54449C15.6774 5.58224 15.5573 5.59263 15.4396 5.5748C15.322 5.55697 15.2103 5.51144 15.1137 5.44194C15.0172 5.37245 14.9385 5.281 14.8842 5.17513C14.83 5.06925 14.8017 4.952 14.8016 4.83303C14.8016 4.1806 14.4814 3.61424 13.9351 3.18896C13.3817 2.75768 12.6212 2.49851 11.8537 2.49851C11.5775 2.49851 11.4084 2.58557 11.2843 2.69464C11.1277 2.84828 11.0097 3.0369 10.9401 3.245C10.8279 3.55364 10.7661 3.87833 10.757 4.20662V14.5013H11.3934C11.7517 14.5013 12.0953 14.359 12.3486 14.1056C12.602 13.8523 12.7443 13.5087 12.7443 13.1504V11.3543C12.3137 11.1801 11.9572 10.8616 11.7357 10.4534C11.5142 10.0452 11.4416 9.57261 11.5303 9.11673C11.619 8.66084 11.8635 8.25 12.222 7.95462C12.5804 7.65924 13.0303 7.49771 13.4948 7.49771C13.9592 7.49771 14.4092 7.65924 14.7676 7.95462C15.126 8.25 15.3705 8.66084 15.4592 9.11673C15.5479 9.57261 15.4753 10.0452 15.2539 10.4534C15.0324 10.8616 14.6758 11.1801 14.2453 11.3543V13.1504C14.2453 13.9068 13.9448 14.6322 13.41 15.167C12.8751 15.7018 12.1498 16.0023 11.3934 16.0023H10.757ZM6.49022 6.99643C6.35752 6.99643 6.23026 7.04915 6.13644 7.14298C6.04261 7.2368 5.98989 7.36406 5.98989 7.49676C5.98989 7.62945 6.04261 7.75671 6.13644 7.85054C6.23026 7.94437 6.35752 7.99708 6.49022 7.99708C6.62291 7.99708 6.75017 7.94437 6.844 7.85054C6.93783 7.75671 6.99054 7.62945 6.99054 7.49676C6.99054 7.36406 6.93783 7.2368 6.844 7.14298C6.75017 7.04915 6.62291 6.99643 6.49022 6.99643ZM5.98989 14.5013C5.98989 14.634 6.04261 14.7613 6.13644 14.8551C6.23026 14.9489 6.35752 15.0016 6.49022 15.0016C6.62291 15.0016 6.75017 14.9489 6.844 14.8551C6.93783 14.7613 6.99054 14.634 6.99054 14.5013C6.99054 14.3686 6.93783 14.2414 6.844 14.1475C6.75017 14.0537 6.62291 14.001 6.49022 14.001C6.35752 14.001 6.23026 14.0537 6.13644 14.1475C6.04261 14.2414 5.98989 14.3686 5.98989 14.5013ZM12.9944 9.49806C12.9944 9.63075 13.0472 9.75801 13.141 9.85184C13.2348 9.94567 13.3621 9.99838 13.4948 9.99838C13.6275 9.99838 13.7547 9.94567 13.8486 9.85184C13.9424 9.75801 13.9951 9.63075 13.9951 9.49806C13.9951 9.36537 13.9424 9.2381 13.8486 9.14428C13.7547 9.05045 13.6275 8.99773 13.4948 8.99773C13.3621 8.99773 13.2348 9.05045 13.141 9.14428C13.0472 9.2381 12.9944 9.36537 12.9944 9.49806Z" fill="#666666"/>
</svg>
