<svg width="23" height="21" viewBox="0 0 23 21" fill="none" xmlns="http://www.w3.org/2000/svg">
<path d="M13 15.2778C13.1029 15.1761 13.1847 15.055 13.2404 14.9215C13.2962 14.788 13.3249 14.6447 13.3249 14.5C13.3249 14.3553 13.2962 14.2121 13.2404 14.0785C13.1847 13.945 13.1029 13.8239 13 13.7222L10.8889 11.6111L21.1111 11.6111C21.7222 11.6111 22.2222 11.1111 22.2222 10.5C22.2222 9.88889 21.7222 9.38889 21.1111 9.38889L10.8889 9.38889L13 7.27778C13.1029 7.17609 13.1847 7.05497 13.2404 6.92146C13.2962 6.78795 13.3249 6.64469 13.3249 6.5C13.3249 6.3553 13.2962 6.21205 13.2404 6.07854C13.1847 5.94503 13.1029 5.82391 13 5.72222C12.5667 5.28889 11.8778 5.28889 11.4445 5.72222L7.45556 9.71111C7.35256 9.8139 7.27084 9.936 7.21508 10.0704C7.15933 10.2048 7.13062 10.3489 7.13062 10.4944C7.13062 10.64 7.15933 10.7841 7.21508 10.9185C7.27084 11.0529 7.35256 11.175 7.45556 11.2778L11.4445 15.2778C11.5461 15.3807 11.6673 15.4624 11.8008 15.5182C11.9343 15.574 12.0775 15.6027 12.2222 15.6027C12.3669 15.6027 12.5102 15.574 12.6437 15.5182C12.7772 15.4624 12.8983 15.3807 13 15.2778ZM2.22223 2.72222L10 2.72222C10.6111 2.72222 11.1111 2.22222 11.1111 1.61111C11.1111 1 10.6111 0.5 10 0.5L2.22223 0.5C1.00001 0.5 7.62939e-06 1.5 7.62939e-06 2.72222L7.62939e-06 18.2778C7.62939e-06 19.5 1.00001 20.5 2.22223 20.5L10 20.5C10.6111 20.5 11.1111 20 11.1111 19.3889C11.1111 18.7778 10.6111 18.2778 10 18.2778L2.22223 18.2778L2.22223 2.72222Z" fill="#333333"/>
</svg>
