<svg width="73" height="36" viewBox="0 0 73 36" fill="none" xmlns="http://www.w3.org/2000/svg">
<path d="M43.8962 4.17199L39.8053 1.3668C39.2208 1.01615 38.4027 1.13303 38.052 1.83433L36.7663 4.17199" fill="#009900"/>
<path d="M69.961 21.237L68.6753 20.5357C68.2078 20.3019 67.974 19.8344 68.0909 19.3669C68.4415 17.1461 68.6753 9.43179 56.7532 5.92529C56.5195 5.80841 56.2857 5.80841 56.0519 5.80841L33.1428 5.92529C32.6753 5.92529 32.2078 6.04218 31.8571 6.27594L19.8182 14.3409C19.5844 14.4578 19.3506 14.5746 19.1169 14.5746C16.8961 14.4578 14.7922 14.6915 12.5714 15.0422C6.25972 16.3279 3.68829 19.7175 2.75323 21.4708C2.51946 21.8214 2.51946 22.2889 2.51946 22.6396C2.63634 25.4448 0.766213 28.6006 3.57141 31.172L26.2467 31.0552L50.0909 30.4707L68.9091 30.237C69.961 30.1201 71.7143 28.6006 72.1818 27.6656C74.1688 24.5097 70.1948 21.3539 69.961 21.237Z" fill="#FAFAFA"/>
<path d="M14.4416 24.0423C11.8701 24.0423 9.76624 26.1462 9.76624 28.7176C9.76624 31.2891 11.8701 33.3929 14.4416 33.3929C17.013 33.3929 19.1169 31.2891 19.1169 28.7176C19.1169 26.1462 17.013 24.0423 14.4416 24.0423ZM60.961 24.0423C58.3896 24.0423 56.2857 26.1462 56.2857 28.7176C56.2857 31.2891 58.3896 33.3929 60.961 33.3929C63.5325 33.3929 65.6364 31.2891 65.6364 28.7176C65.6364 26.1462 63.5325 24.0423 60.961 24.0423Z" fill="black"/>
<path d="M59.7923 15.7435V10.7175C59.7923 9.66557 58.8572 8.7305 57.8052 8.7305H33.026C32.9091 8.7305 32.7923 8.7305 32.7923 8.84738L22.7403 15.5097C22.5065 15.6266 23.2078 15.9773 23.3247 16.211C23.4416 16.3279 23.5585 16.4448 23.6754 16.4448C30.2208 16.4448 55.4676 16.211 59.2078 16.3279C59.5585 16.3279 59.7923 16.0941 59.7923 15.7435C59.7923 15.8604 59.7923 15.8604 59.7923 15.7435Z" fill="#CFCFCF"/>
<path d="M4.62338 17.1463L9.2987 19.0164L6.84416 22.406L1 22.5229L4.62338 17.1463Z" fill="#D0CFCE"/>
<path d="M43.8961 4.17199L39.8052 1.3668C39.2208 1.01615 38.4026 1.13303 38.0519 1.83433L36.7662 4.17199" stroke="black" stroke-width="2" stroke-miterlimit="10" stroke-linecap="round" stroke-linejoin="round"/>
<path d="M3.68831 29.8863C2.63636 29.6525 1.7013 29.3019 1.58441 28.7174C1.46753 27.5486 1.23376 24.2759 1.23376 22.7564C1.23376 22.172 1.35065 21.4707 1.7013 21.0032C2.98701 18.6655 7.31169 13.0551 19.1169 13.5226L31.1558 5.45771C31.7403 5.10706 32.4416 4.87329 33.026 4.87329L55.9351 4.75641C56.2857 4.75641 56.6364 4.75641 56.987 4.87329C59.5584 5.57459 70.6623 9.54861 69.1429 19.6006L70.4286 20.3019C71.013 20.5356 71.4805 21.12 71.5974 21.7045C72.0649 23.3408 71.9481 25.0941 71.3636 26.7304M49.8571 29.4187L25.7792 29.8863L49.8571 29.4187Z" stroke="black" stroke-width="2" stroke-linecap="round" stroke-linejoin="round"/>
<path d="M23.3247 16.4447L58.6234 16.211V10.9512" stroke="black" stroke-width="2" stroke-linecap="round" stroke-linejoin="round"/>
<path d="M14.4416 34.5616C17.6692 34.5616 20.2857 31.9451 20.2857 28.7174C20.2857 25.4898 17.6692 22.8733 14.4416 22.8733C11.2139 22.8733 8.59741 25.4898 8.59741 28.7174C8.59741 31.9451 11.2139 34.5616 14.4416 34.5616Z" stroke="black" stroke-width="2" stroke-linecap="round" stroke-linejoin="round"/>
<path d="M60.961 34.5616C64.1887 34.5616 66.8052 31.9451 66.8052 28.7174C66.8052 25.4898 64.1887 22.8733 60.961 22.8733C57.7334 22.8733 55.1169 25.4898 55.1169 28.7174C55.1169 31.9451 57.7334 34.5616 60.961 34.5616Z" stroke="black" stroke-width="2" stroke-linecap="round" stroke-linejoin="round"/>
<path d="M8.5974 19.9512L6.4935 22.5226L2.16882 22.4058" stroke="black" stroke-width="2" stroke-linecap="round" stroke-linejoin="round"/>
<path d="M22.3896 20.5356H52.7792" stroke="black" stroke-width="2" stroke-miterlimit="10" stroke-linecap="round" stroke-linejoin="round"/>
<path d="M22.3896 20.5358H52.7792" stroke="#009900" stroke-width="2.1" stroke-miterlimit="10" stroke-linecap="round" stroke-linejoin="round"/>
</svg>
