<svg width="50" height="45" viewBox="0 0 50 45" fill="none" xmlns="http://www.w3.org/2000/svg">
<path d="M45 7.5H38.535L31.7675 0.732503C31.5357 0.499896 31.2603 0.315427 30.9569 0.189713C30.6536 0.0640003 30.3284 -0.000473623 30 2.61918e-06H20C19.6716 -0.000473623 19.3464 0.0640003 19.0431 0.189713C18.7397 0.315427 18.4643 0.499896 18.2325 0.732503L11.465 7.5H5C2.2425 7.5 0 9.7425 0 12.5V40C0 42.7575 2.2425 45 5 45H45C47.7575 45 50 42.7575 50 40V12.5C50 9.7425 47.7575 7.5 45 7.5ZM25 37.5C18.225 37.5 12.5 31.775 12.5 25C12.5 18.2225 18.225 12.5 25 12.5C31.775 12.5 37.5 18.2225 37.5 25C37.5 31.775 31.775 37.5 25 37.5Z" fill="#333333"/>
<path d="M27.5 17.5H22.5V22.5H17.5V27.5H22.5V32.5H27.5V27.5H32.5V22.5H27.5V17.5Z" fill="#333333"/>
</svg>
