<svg width="22" height="23" viewBox="0 0 22 23" fill="none" xmlns="http://www.w3.org/2000/svg">
<path d="M11 1.5C5.477 1.5 1 5.977 1 11.5C1 17.023 5.477 21.5 11 21.5C16.523 21.5 21 17.023 21 11.5C21 5.977 16.523 1.5 11 1.5Z" stroke="#333333" stroke-width="2" stroke-linecap="round" stroke-linejoin="round"/>
<path d="M3.271 17.846C3.271 17.846 5.5 15 11 15C16.5 15 18.73 17.846 18.73 17.846M11 11.5C11.7956 11.5 12.5587 11.1839 13.1213 10.6213C13.6839 10.0587 14 9.29565 14 8.5C14 7.70435 13.6839 6.94129 13.1213 6.37868C12.5587 5.81607 11.7956 5.5 11 5.5C10.2043 5.5 9.44128 5.81607 8.87868 6.37868C8.31607 6.94129 8 7.70435 8 8.5C8 9.29565 8.31607 10.0587 8.87868 10.6213C9.44128 11.1839 10.2043 11.5 11 11.5Z" stroke="#333333" stroke-width="2" stroke-linecap="round" stroke-linejoin="round"/>
</svg>
