<svg width="23" height="21" viewBox="0 0 23 21" fill="none" xmlns="http://www.w3.org/2000/svg">
<path d="M9.22222 5.72222C9.11929 5.82391 9.03757 5.94503 8.98179 6.07854C8.92601 6.21205 8.89729 6.35531 8.89729 6.5C8.89729 6.64469 8.92601 6.78795 8.98179 6.92146C9.03757 7.05497 9.11929 7.17609 9.22222 7.27778L11.3333 9.38889H1.11111C0.5 9.38889 0 9.88889 0 10.5C0 11.1111 0.5 11.6111 1.11111 11.6111H11.3333L9.22222 13.7222C9.11929 13.8239 9.03757 13.945 8.98179 14.0785C8.92601 14.2121 8.89729 14.3553 8.89729 14.5C8.89729 14.6447 8.92601 14.788 8.98179 14.9215C9.03757 15.055 9.11929 15.1761 9.22222 15.2778C9.65555 15.7111 10.3444 15.7111 10.7778 15.2778L14.7667 11.2889C14.8697 11.1861 14.9514 11.064 15.0071 10.9296C15.0629 10.7952 15.0916 10.6511 15.0916 10.5056C15.0916 10.36 15.0629 10.2159 15.0071 10.0815C14.9514 9.94711 14.8697 9.82502 14.7667 9.72222L10.7778 5.72222C10.6761 5.61929 10.555 5.53757 10.4215 5.48179C10.2879 5.42601 10.1447 5.39729 10 5.39729C9.8553 5.39729 9.71205 5.42601 9.57854 5.48179C9.44503 5.53757 9.32391 5.61929 9.22222 5.72222ZM20 18.2778H12.2222C11.6111 18.2778 11.1111 18.7778 11.1111 19.3889C11.1111 20 11.6111 20.5 12.2222 20.5H20C21.2222 20.5 22.2222 19.5 22.2222 18.2778V2.72222C22.2222 1.5 21.2222 0.5 20 0.5H12.2222C11.6111 0.5 11.1111 1 11.1111 1.61111C11.1111 2.22222 11.6111 2.72222 12.2222 2.72222H20V18.2778Z" fill="#333333"/>
</svg>
